<svg viewBox="0 0 15 15" fill="none" xmlns="http://www.w3.org/2000/svg">
<path d="M0.646447 14.0815C0.451184 14.2768 0.451184 14.5933 0.646447 14.7886C0.841709 14.9839 1.15829 14.9839 1.35355 14.7886L7.71777 8.42439L14.082 14.7886C14.2773 14.9839 14.5938 14.9839 14.7891 14.7886C14.9844 14.5933 14.9844 14.2768 14.7891 14.0815L8.42488 7.71729L14.7886 1.35358C14.9838 1.15832 14.9838 0.841739 14.7886 0.646477C14.5933 0.451215 14.2767 0.451215 14.0815 0.646477L7.71777 7.01018L1.35407 0.646478C1.15881 0.451216 0.842226 0.451216 0.646964 0.646478C0.451701 0.84174 0.451702 1.15832 0.646964 1.35359L7.01067 7.71729L0.646447 14.0815Z" fill="currentColor"/>
</svg>
