<svg viewBox="0 0 22 18" fill="none" xmlns="http://www.w3.org/2000/svg">
<path d="M10.9999 2.1C18.4153 2.1 20.5999 9.07613 20.5999 9.07613C20.5999 9.07613 20.2649 10.0848 19.4387 11.3217M10.9999 2.1C3.67683 2.1 1.3999 9.07613 1.3999 9.07613C1.3999 9.07613 2.45776 5.69808 5.5999 3.64332M10.9999 2.1C10.5836 2.1 10.1838 2.12199 9.7999 2.16349M19.4387 11.3217C18.4153 12.5 16.3999 14.3494 16.3999 14.3494C15.0225 15.2281 13.2492 15.8495 10.9999 15.8127M19.4387 11.3217C18.4153 12.5 16.3999 14.3494 16.3999 14.3494M10.9999 15.8127C3.67683 15.693 1.3999 9.07613 1.3999 9.07613M10.9999 15.8127C8.7506 15.8495 6.9773 15.2281 5.5999 14.3494C5.5999 14.3494 3.5845 12.5 2.5611 11.3217M5.5999 14.3494C5.5999 14.3494 3.5845 12.5 2.5611 11.3217M2.5611 11.3217C1.7353 10.0848 1.3999 9.07613 1.3999 9.07613" stroke="currentColor" stroke-width="2" stroke-linecap="round"/>
<circle cx="11" cy="9" r="2" stroke="currentColor" stroke-width="2" fill="none"/>
</svg>
