<svg width="100" height="100" viewBox="0 0 499 146" fill="none" xmlns="http://www.w3.org/2000/svg">
<path d="M5.95342 55.27C6.07142 52.202 7.13342 50.019 9.13942 48.721C11.2634 47.423 13.4464 46.774 15.6884 46.774C17.4584 46.774 19.1694 47.069 20.8214 47.659C22.4734 48.131 23.7714 49.016 24.7154 50.314C25.7774 51.494 26.2494 53.146 26.1314 55.27L25.7774 67.837C29.5534 61.465 34.1554 56.45 39.5834 52.792C45.0114 49.016 51.2064 47.128 58.1684 47.128C60.1744 47.128 62.1214 47.305 64.0094 47.659C66.0154 47.895 67.6674 48.662 68.9654 49.96C70.3814 51.258 71.0894 53.382 71.0894 56.332C71.0894 58.102 70.6764 59.813 69.8504 61.465C69.1424 63.117 67.9624 64.474 66.3104 65.536C64.7764 66.48 62.7114 66.893 60.1154 66.775C55.3954 66.303 51.0884 66.834 47.1944 68.368C43.4184 69.902 40.0554 72.262 37.1054 75.448C34.2734 78.634 31.7954 82.528 29.6714 87.13C27.6654 91.732 26.0724 96.865 24.8924 102.529C24.5384 106.305 24.1844 109.727 23.8304 112.795C23.5944 115.745 23.2994 118.577 22.9454 121.291C22.7094 123.887 22.4144 126.483 22.0604 129.079C21.8244 131.557 21.4704 134.153 20.9984 136.867C20.6444 139.109 19.7004 140.761 18.1664 141.823C16.7504 142.885 14.5674 143.416 11.6174 143.416C8.31342 143.416 5.59942 142.649 3.47542 141.115C1.46942 139.463 0.643419 137.221 0.997419 134.389C2.17742 123.533 3.12142 113.326 3.82942 103.768C4.53742 94.092 5.06842 85.183 5.42242 77.041C5.77642 68.781 5.95342 61.524 5.95342 55.27ZM72.8525 92.617C72.8525 86.363 74.0915 80.404 76.5695 74.74C79.0475 69.076 82.4105 64.061 86.6585 59.695C90.9065 55.329 95.8035 51.907 101.35 49.429C107.014 46.833 113.032 45.535 119.404 45.535C127.192 45.535 133.387 47.659 137.989 51.907C142.709 56.155 145.069 61.701 145.069 68.545C145.069 75.271 143.004 81.466 138.874 87.13C134.744 92.794 128.903 97.396 121.351 100.936C113.917 104.476 105.126 106.305 94.9775 106.423C96.5115 111.025 98.3405 114.919 100.465 118.105C102.707 121.173 105.185 123.474 107.899 125.008C110.731 126.424 113.799 127.132 117.103 127.132C120.761 127.132 124.006 126.306 126.838 124.654C129.788 123.002 132.502 120.583 134.98 117.397C136.278 115.627 137.458 114.388 138.52 113.68C139.7 112.972 140.88 112.618 142.06 112.618C144.538 112.618 146.485 113.444 147.901 115.096C149.317 116.748 150.025 118.636 150.025 120.76C150.025 122.648 149.376 124.713 148.078 126.955C146.898 129.079 145.01 131.439 142.414 134.035C138.756 137.457 134.685 140.112 130.201 142C125.717 143.888 120.938 144.832 115.864 144.832C107.486 144.832 100.052 142.531 93.5615 137.929C87.0715 133.327 81.9975 127.132 78.3395 119.344C74.6815 111.438 72.8525 102.529 72.8525 92.617ZM92.6765 90.493C97.1605 90.493 101.409 89.962 105.421 88.9C109.433 87.72 112.973 86.127 116.041 84.121C119.109 81.997 121.528 79.578 123.298 76.864C125.068 74.15 125.953 71.259 125.953 68.191C125.953 66.067 125.186 64.356 123.652 63.058C122.236 61.76 120.407 61.111 118.165 61.111C114.035 61.111 110.023 62.409 106.129 65.005C102.353 67.483 99.1665 70.964 96.5705 75.448C94.0925 79.814 92.7945 84.829 92.6765 90.493ZM158.841 101.998C158.841 94.918 160.021 88.133 162.381 81.643C164.741 75.153 168.045 69.371 172.293 64.297C176.541 59.223 181.497 55.211 187.161 52.261C192.943 49.311 199.138 47.836 205.746 47.836C209.168 47.836 212.354 48.249 215.304 49.075C218.254 49.901 220.791 50.904 222.915 52.084C223.269 49.37 224.331 47.423 226.101 46.243C227.871 44.945 230.054 44.237 232.65 44.119C235.01 44.001 236.898 44.414 238.314 45.358C239.73 46.302 240.733 47.482 241.323 48.898C242.031 50.314 242.385 51.789 242.385 53.323C242.385 54.621 242.149 57.158 241.677 60.934C241.323 64.592 240.851 69.253 240.261 74.917C239.789 80.463 239.14 86.835 238.314 94.033C237.96 96.983 237.724 99.756 237.606 102.352C237.488 104.83 237.429 106.659 237.429 107.839C237.547 112.205 237.783 115.922 238.137 118.99C238.609 121.94 239.258 124.182 240.084 125.716C241.028 127.25 242.149 128.017 243.447 128.017C244.981 128.017 246.161 127.663 246.987 126.955C247.931 126.129 248.875 125.362 249.819 124.654C250.763 123.828 252.061 123.415 253.713 123.415C255.837 123.415 257.371 124.005 258.315 125.185C259.377 126.365 259.908 128.194 259.908 130.672C259.908 132.56 259.554 134.271 258.846 135.805C258.256 137.339 257.312 138.755 256.014 140.053C254.244 141.705 252.061 142.944 249.465 143.77C246.987 144.714 244.273 145.186 241.323 145.186C235.895 145.186 231.588 143.593 228.402 140.407C225.216 137.103 222.797 133.032 221.145 128.194C218.903 131.852 216.307 134.979 213.357 137.575C210.525 140.053 207.457 141.941 204.153 143.239C200.849 144.537 197.486 145.186 194.064 145.186C186.984 145.186 180.789 143.121 175.479 138.991C170.169 134.861 166.039 129.492 163.089 122.884C160.257 116.276 158.841 109.314 158.841 101.998ZM217.605 100.228L220.968 69.43C218.844 67.896 216.661 66.775 214.419 66.067C212.295 65.241 209.994 64.828 207.516 64.828C203.386 64.828 199.551 65.89 196.011 68.014C192.589 70.138 189.639 72.97 187.161 76.51C184.801 80.05 182.972 83.944 181.674 88.192C180.376 92.322 179.727 96.452 179.727 100.582C179.727 104.24 180.081 107.721 180.789 111.025C181.497 114.211 182.618 117.043 184.152 119.521C185.686 121.999 187.515 123.946 189.639 125.362C191.881 126.778 194.418 127.486 197.25 127.486C200.318 127.486 203.209 126.188 205.923 123.592C208.637 120.996 210.997 117.633 213.003 113.503C215.127 109.255 216.661 104.83 217.605 100.228ZM264.354 95.449C264.354 89.077 265.239 82.941 267.009 77.041C268.779 71.023 271.493 65.654 275.151 60.934C278.927 56.214 283.588 52.497 289.134 49.783C294.798 47.069 301.406 45.712 308.958 45.712C311.908 45.712 314.858 46.007 317.808 46.597C320.876 47.069 323.708 47.895 326.304 49.075C326.894 42.113 327.543 35.269 328.251 28.543C328.959 21.699 329.844 14.56 330.906 7.126C331.26 5.59199 331.968 4.35299 333.03 3.40899C334.092 2.465 335.331 1.816 336.747 1.46199C338.163 0.989994 339.579 0.753993 340.995 0.753993C344.535 0.753993 347.19 1.75699 348.96 3.763C350.73 5.65099 351.615 8.24699 351.615 11.551C351.615 13.203 351.261 16.271 350.553 20.755C349.963 25.239 349.255 30.313 348.429 35.977C347.721 41.523 347.072 46.833 346.482 51.907C345.656 59.577 345.125 67.365 344.889 75.271C344.771 83.059 344.712 91.26 344.712 99.874C344.712 105.892 344.771 111.851 344.889 117.751C345.125 123.533 345.302 129.138 345.42 134.566C345.656 137.398 344.712 139.463 342.588 140.761C340.582 142.059 338.281 142.708 335.685 142.708C332.499 142.708 329.962 142.059 328.074 140.761C326.186 139.463 325.124 137.398 324.888 134.566C324.77 133.032 324.652 131.498 324.534 129.964C324.534 128.43 324.475 126.837 324.357 125.185C324.357 123.533 324.357 121.881 324.357 120.229C321.407 126.837 317.808 132.383 313.56 136.867C309.43 141.351 303.884 143.593 296.922 143.593C291.376 143.593 286.538 142.118 282.408 139.168C278.278 136.218 274.856 132.383 272.142 127.663C269.546 122.825 267.599 117.633 266.301 112.087C265.003 106.423 264.354 100.877 264.354 95.449ZM285.063 93.148C285.063 99.638 285.712 105.361 287.01 110.317C288.426 115.155 290.255 118.931 292.497 121.645C294.739 124.241 297.158 125.539 299.754 125.539C302.822 125.539 305.595 124.064 308.073 121.114C310.551 118.046 312.793 114.034 314.799 109.078C316.923 104.004 318.634 98.576 319.932 92.794C320.758 89.372 321.466 86.245 322.056 83.413C322.646 80.463 323.118 77.69 323.472 75.094C323.826 72.38 324.121 69.607 324.357 66.775C322.705 65.949 321.053 65.3 319.401 64.828C317.867 64.238 316.215 63.766 314.445 63.412C312.793 63.058 311.082 62.881 309.312 62.881C305.536 62.881 301.76 63.884 297.984 65.89C294.208 67.778 291.081 70.905 288.603 75.271C286.243 79.637 285.063 85.596 285.063 93.148ZM373.013 53.854C373.013 51.966 373.485 50.432 374.429 49.252C375.373 47.954 376.612 47.01 378.146 46.42C379.798 45.83 381.391 45.535 382.925 45.535C386.111 45.535 388.648 46.243 390.536 47.659C392.424 48.957 393.368 51.022 393.368 53.854C393.368 62.114 393.191 69.548 392.837 76.156C392.483 82.646 392.07 88.9 391.598 94.918C391.244 100.818 390.89 107.072 390.536 113.68C390.182 120.17 389.946 127.722 389.828 136.336C389.828 138.932 388.884 140.938 386.996 142.354C385.108 143.888 382.689 144.655 379.739 144.655C376.789 144.655 374.547 144.065 373.013 142.885C371.597 141.823 370.594 140.466 370.004 138.814C369.532 137.162 369.296 135.451 369.296 133.681C369.296 132.619 369.414 130.023 369.65 125.893C369.886 121.763 370.181 116.689 370.535 110.671C370.889 104.535 371.243 98.045 371.597 91.201C372.069 84.357 372.423 77.69 372.659 71.2C372.895 64.71 373.013 58.928 373.013 53.854ZM371.066 15.976C371.066 13.616 371.597 11.315 372.659 9.07299C373.721 6.83099 375.137 5.06099 376.907 3.763C378.795 2.34699 380.86 1.63899 383.102 1.63899C387.35 1.63899 390.536 2.40599 392.66 3.93999C394.784 5.474 396.2 7.24399 396.908 9.24999C397.616 11.256 397.97 12.967 397.97 14.383C397.97 18.041 396.554 21.227 393.722 23.941C391.008 26.655 387.704 28.012 383.81 28.012C380.27 28.012 377.261 26.891 374.783 24.649C372.305 22.407 371.066 19.516 371.066 15.976ZM418.867 49.96C419.221 47.6 420.283 45.948 422.053 45.004C423.941 43.942 426.183 43.411 428.779 43.411C431.729 43.411 434.03 44.178 435.682 45.712C437.452 47.246 438.337 48.957 438.337 50.845C438.337 51.553 438.219 52.792 437.983 54.562C437.747 56.332 437.511 58.279 437.275 60.403C437.039 62.527 436.862 64.592 436.744 66.598C438.868 62.704 441.287 59.105 444.001 55.801C446.715 52.497 449.96 49.842 453.736 47.836C457.63 45.83 462.114 44.827 467.188 44.827C477.572 44.827 485.36 48.603 490.552 56.155C495.744 63.589 498.34 73.442 498.34 85.714C498.34 91.732 497.927 97.573 497.101 103.237C496.275 108.901 495.449 114.447 494.623 119.875C493.797 125.185 493.384 130.554 493.384 135.982C493.384 138.224 492.44 140.112 490.552 141.646C488.664 143.18 486.127 143.947 482.941 143.947C479.755 143.947 477.277 143.18 475.507 141.646C473.855 140.112 473.029 138.047 473.029 135.451C473.029 129.905 473.442 124.595 474.268 119.521C475.212 114.447 476.097 109.314 476.923 104.122C477.749 98.93 478.162 93.384 478.162 87.484C478.162 81.112 477.513 76.215 476.215 72.793C475.035 69.371 473.324 67.011 471.082 65.713C468.84 64.297 466.303 63.589 463.471 63.589C459.931 63.589 456.745 64.828 453.913 67.306C451.081 69.666 448.544 72.734 446.302 76.51C444.06 80.286 442.172 84.298 440.638 88.546C439.222 92.676 438.042 96.452 437.098 99.874C437.216 106.364 437.216 112.736 437.098 118.99C437.098 125.244 436.921 131.026 436.567 136.336C436.449 138.46 435.505 140.289 433.735 141.823C431.965 143.357 429.428 144.124 426.124 144.124C423.056 144.124 420.696 143.416 419.044 142C417.51 140.702 416.448 138.932 415.858 136.69C415.386 134.448 415.15 132.029 415.15 129.433C415.15 125.303 415.327 120.937 415.681 116.335C416.035 111.733 416.684 107.249 417.628 102.883C417.392 96.275 417.215 90.316 417.097 85.006C417.097 79.696 417.097 74.976 417.097 70.846C417.215 66.598 417.392 62.822 417.628 59.518C417.864 56.096 418.277 52.91 418.867 49.96Z" fill="#378FE9"/>
</svg>
